<?xml version="1.0" encoding="UTF-8"?>
<svg id="uuid-a7a34492-c395-472a-a9b2-0ed31f374cfa" data-name="Ebene 1" xmlns="http://www.w3.org/2000/svg" viewBox="0 0 192 192">
  <defs>
    <style>
      .uuid-c28c4d80-36b9-4f86-a005-878fc322b98c {
        fill: #242119;
      }
    </style>
  </defs>
  <path class="uuid-c28c4d80-36b9-4f86-a005-878fc322b98c" d="M166.27,71.75c-3.51,7.14-6.37,13.93-9.59,22.17-7.7,5.82-15.28,11.36-21.7,16.1-10.65,7.9-16.94,12.49-20.2,12.71-1.43.1-2.24-.86-2.26-2.43h-.03c-.16-8.32,11.97-20.33,29.51-29.69l-5.48-12.83c-11.63,6.27-21.63,13.67-28.62,21.65l-2.59-13.23c5.09-12.26,10.19-24.65,14.91-36.59l-13.54-5.83c-5.94,15.18-12.41,30.97-18.74,46.46-14.01,3.53-28.8,6.83-43.85,9.86,10.05-18.33,19.83-38.06,26.78-55.18l-13.66-5.39c-8.07,19.78-19.84,43.66-31.16,63.94l-.02.02c-5.97.98-11.94,1.95-17.92,2.94l1.46,14.68c2.21-.44,4.42-.74,6.75-1.18-3.91,6.14-7.59,11.7-10.89,15.94l10.47,8.75c5.59-7.27,12.17-17.03,18.72-28.1,15.72-2.94,31.28-6.29,46.33-9.89-4.61,10.63-9.22,20.85-13.46,30.03l12.77,6.59c5.75-12.3,11.99-26.35,18.34-41.12,3.09-.91,6.15-1.7,9.22-2.61-6.65,7.65-10.53,15.83-10.37,24.07.17,8.88,4.07,14.5,13.84,13.84,7.41-.5,16.56-5.56,29.67-15.21,2.31-1.73,4.88-3.63,7.44-5.67-.61,1.76-1.36,3.69-1.97,5.59-7.28,20.87-16.6,36.13-31.05,37.12-7.8.53-14.29-4.35-16.87-16.21l-14.88,5.75c4.14,17.79,14.21,26.44,29.97,25.37,19.26-1.31,35.4-15.32,45.99-46.31,3.46-10,6.53-18.95,9.37-27.04,5.91-4.56,11.68-8.97,16.94-13.06l-7.51-10.68-12.09-5.35h0Z"/>
</svg>