<?xml version="1.0" encoding="UTF-8"?>
<svg id="Ebene_1" xmlns="http://www.w3.org/2000/svg" version="1.1" viewBox="0 0 454.7 316.2">
  <!-- Generator: Adobe Illustrator 30.0.0, SVG Export Plug-In . SVG Version: 2.1.1 Build 123)  -->
  <defs>
    <style>
      .st0 {
        fill: #fff;
      }
    </style>
  </defs>
  <path class="st0" d="M53.3,141.2C82.7,96.6,113.4,43.9,134.6,0l34,14.4c-18.3,38-43.8,81.6-69.9,121.9,37.9-4.6,75.1-9.8,110.4-15.7,16.7-34.4,33.6-69.5,49.3-103.2l33.6,15.4c-12.4,26.5-25.8,54.1-39.2,81.3l5.9,30.8c-7.8,1.6-15.7,3-23.5,4.6-16.7,32.8-33,63.9-48,91.1l-31.7-17c11.1-20.3,23.2-42.9,35.3-66.5-37.9,5.9-77.1,11.1-116.6,15.4-17,24.2-34,45.5-48.3,61.3L0,212c8.5-9.2,18-21.3,28.1-34.7-5.9.7-11.4,1-17,1.7l-2.9-33.8c15-1.3,30-2.6,45.1-3.9h0Z"/>
  <path class="st0" d="M269.2,193c0,3.6,2,5.9,5.6,5.9,8.2,0,24.2-9.5,51.3-25.9,16.3-9.8,35.6-21.3,55.2-33.4,8.5-18.3,16-33.4,25.2-49.2l30,14.1,18.3,25.5c-13.4,8.5-28.1,17.7-43.1,27.2-7.5,18-15.7,38-24.8,60.3-28.1,69.1-69.2,98.6-117.6,98.6-39.5,0-64.3-21.3-73.8-62.6l37.6-10.8c5.9,27.5,21.9,39.6,41.5,39.6,36.3,0,60.4-33.4,79.7-80,1.6-4.2,3.6-8.5,5.2-12.4-6.5,4.2-13.1,8.2-18.9,11.8-33.3,20-56.5,30.1-75.1,30.1-24.5,0-34-13.4-34-33.8,0-38.7,42.5-74.1,100.3-98.6l13.1,30.1c-44.4,18.7-75.5,44.2-75.5,63.2h0Z"/>
</svg>