<svg preserveAspectRatio="none" width="100%" height="100%" overflow="visible" style="display: block;" viewBox="0 0 300 71.1321" fill="none" xmlns="http://www.w3.org/2000/svg">
<g id="Group 2">
<path id="Vector" d="M10.6624 36.1188C16.5435 27.2002 22.6868 16.6518 26.9324 7.86432L33.731 10.7479C30.0724 18.3557 24.972 27.0692 19.7462 35.1329C27.3256 34.2154 34.7739 33.1668 41.8346 31.9872C45.1684 25.1031 48.5649 18.0879 51.6992 11.3349L58.4294 14.4179C55.9448 19.7291 53.2663 25.2342 50.5879 30.6765L51.7619 36.8368C50.1947 37.1617 48.6276 37.4295 47.0547 37.7543C43.7209 44.3079 40.4555 50.5367 37.4466 55.979L31.1096 52.5711C33.3321 48.5079 35.7483 43.9831 38.1646 39.2645C30.5853 40.4442 22.7438 41.4927 14.8339 42.3475C11.4374 47.1972 8.03526 51.4599 5.16308 54.6056L0 50.2802C1.69823 48.4452 3.59592 46.0176 5.61898 43.3334C4.44504 43.4645 3.33378 43.5329 2.22252 43.664L1.63555 36.9109C4.64449 36.6488 7.64774 36.3866 10.651 36.1245L10.6624 36.1188Z" fill="var(--fill-0, #F5F5F5)"/>
<path id="Vector_2" d="M53.8533 46.4792C53.8533 47.1972 54.2465 47.6588 54.9646 47.6588C56.6001 47.6588 59.8028 45.7554 65.2224 42.4786C68.4878 40.5126 72.3458 38.216 76.2666 35.794C77.9648 32.124 79.4693 29.1093 81.2986 25.9579L87.3108 28.7788L90.9694 33.8906C88.291 35.5945 85.3504 37.4295 82.3414 39.3329C80.837 42.9402 79.2071 46.9351 77.3721 51.3972C71.7531 65.2281 63.5184 71.132 53.8476 71.132C45.9377 71.132 40.9741 66.8694 39.0764 58.6118L46.5931 56.4463C47.767 61.9513 50.9698 64.379 54.8905 64.379C62.145 64.379 66.9776 57.6943 70.8356 48.3826C71.1605 47.5334 71.5537 46.6786 71.8785 45.8922C70.5735 46.7413 69.2628 47.5334 68.0888 48.2515C61.4213 52.252 56.7825 54.2808 53.0612 54.2808C48.1603 54.2808 46.2626 51.591 46.2626 47.5277C46.2626 39.7945 54.7594 32.711 66.3222 27.7929L68.938 33.8222C60.0479 37.5606 53.8419 42.6724 53.8419 46.4735L53.8533 46.4792Z" fill="var(--fill-0, #F5F5F5)"/>
<path id="Vector_3" d="M129.852 20.1907C129.852 18.88 128.348 18.1562 125.8 18.1562C114.756 18.1562 99.5973 29.6962 99.5973 40.7746C99.5973 45.3621 102.082 48.3768 108.55 48.3768C115.867 48.3768 122.598 46.4791 131.619 41.8859L134.166 48.0462C124.757 52.9643 116.067 55.0614 107.895 55.0614C96.5257 55.0614 91.6875 49.9496 91.6875 41.3616C91.6875 27.1375 109.986 11.5969 127.236 11.5343C134.685 11.5343 137.494 15.2726 137.494 19.4669C137.494 22.55 135.596 25.6957 130.764 29.3657L126.057 24.5787C128.473 22.8064 129.846 21.4957 129.846 20.185L129.852 20.1907Z" fill="var(--fill-0, #F5F5F5)"/>
<path id="Vector_4" d="M137.694 44.1198C137.694 46.8723 139.329 47.7898 141.552 47.7898C148.738 47.7898 156.061 40.712 156.061 33.0414C156.061 30.4827 155.667 28.7161 154.949 26.6816C154.163 26.4822 153.445 26.2884 152.727 26.0889L154.625 19.7975C159.132 21.1082 166.78 22.1568 172.792 22.1568C175.602 22.1568 178.48 22.0257 181.289 21.7009C191.017 7.27732 199.97 0 207.68 0C212.974 0 215.128 3.14572 215.128 7.60215C215.128 16.9766 202.842 24.8409 185.917 27.5991C184.999 29.1093 183.956 30.6821 182.976 32.3861C185.785 32.1866 188.857 31.9245 192.584 31.6623L192.977 38.0848C187.62 38.6091 183.5 38.8713 179.124 39.0023C174.354 47.5904 169.515 57.4891 164.945 68.2427L158.346 65.815C162.66 55.7168 166.843 46.7356 171.026 39.0023L170.832 33.0357C172.074 32.973 173.248 32.9047 174.359 32.842C175.209 31.4002 176.058 29.9584 176.844 28.5793C175.34 28.642 173.835 28.7104 172.268 28.7104C169.259 28.7104 165.931 28.4482 162.66 28.055C163.053 29.6279 163.247 31.2691 163.247 32.842C163.247 45.3622 151.091 54.3434 140.116 54.3434C133.91 54.3434 130.183 50.8672 130.183 45.3622C130.183 37.3668 137.112 30.7448 147.826 27.7929L149.462 34.0216C141.358 36.3182 137.699 40.1193 137.699 44.1141L137.694 44.1198ZM191.211 19.9286C200.688 17.5693 207.874 13.5061 207.874 8.51965C207.874 7.27162 207.287 6.68465 206.238 6.68465C202.773 6.68465 197.417 11.5343 191.211 19.9286Z" fill="var(--fill-0, #F5F5F5)"/>
<path id="Vector_5" d="M205.475 30.534C214.69 18.1448 220.964 15.455 226.452 15.455C231.615 15.455 235.011 18.1448 235.142 23.5815L227.563 24.4363C227.369 22.7323 226.452 22.077 225.147 22.077C222.075 22.077 218.81 24.1741 214.103 30.1407C218.154 30.0097 222.4 29.8786 226.583 29.8786V36.3011C220.44 36.3011 214.627 36.4322 209.464 36.6259C204.757 43.7038 198.875 53.8647 191.102 68.1572L185.027 64.812C191.102 53.0783 196.334 44.0286 200.842 37.1445C197.314 37.4067 194.242 37.7372 191.826 38.062L191.04 31.9017C194.567 31.309 199.668 30.8531 205.48 30.5283L205.475 30.534Z" fill="var(--fill-0, #F5F5F5)"/>
<path id="Vector_6" d="M230.669 31.4229C234.983 26.5733 241.32 22.7038 247.856 22.7038C253.082 22.7038 255.892 25.0631 255.892 28.8015C255.892 35.224 249.423 39.1562 240.733 39.1562C238.379 39.1562 236.094 38.9624 233.741 38.5635C233.216 39.6804 232.891 40.729 232.891 41.6465C232.891 43.8747 234.459 44.7922 237.205 44.7922C246.551 44.7922 257.202 39.2872 264.52 30.306C265.175 30.6992 265.893 31.0924 266.548 31.4229C271.056 26.1801 278.311 21.9174 286.152 21.9174C292.489 21.9174 295.823 25.0004 295.823 29.5879C295.823 36.9963 288.437 41.4528 279.422 41.4528C275.957 41.4528 272.754 40.8601 269.683 39.9426C269.62 40.3985 269.552 40.8601 269.552 41.3217C269.552 44.6669 271.837 45.9092 275.889 45.9092C282.294 45.9092 289.811 43.4188 296.341 38.6319L300 44.1369C292.745 49.3171 282.944 52.5255 275.689 52.5255C266.212 52.5255 261.966 48.5933 261.966 41.7719C253.538 48.2628 243.93 51.4712 235.433 51.4712C228.503 51.4712 225.044 48.2571 225.044 43.2764C225.044 41.3103 225.7 39.1448 226.811 36.9165C225.831 36.5917 224.85 36.2612 223.87 35.868L226.093 29.9698C227.597 30.494 229.164 31.0183 230.669 31.4115V31.4229ZM238.248 32.9958C239.228 33.1269 240.146 33.1953 241.058 33.1953C245.11 33.1953 248.574 32.5399 248.574 30.0495C248.574 29.3942 248.05 28.8699 246.876 28.8699C244.198 28.8699 240.927 30.6422 238.248 33.0015V32.9958ZM273.279 34.0444C275.695 34.6997 278.048 35.0303 280.402 35.0303C284.716 35.0303 288.181 33.2579 288.181 30.6365C288.181 29.3258 287.263 28.471 285.172 28.471C280.926 28.471 276.413 30.8987 273.279 34.0444Z" fill="var(--fill-0, #F5F5F5)"/>
</g>
</svg>
