<svg preserveAspectRatio="none" width="100%" height="100%" overflow="visible" style="display: block;" viewBox="0 0 198.09 46.9684" fill="none" xmlns="http://www.w3.org/2000/svg">
<g id="Group 2">
<path id="Vector" d="M7.04037 23.8492C10.9237 17.9603 14.9801 10.9952 17.7834 5.19278L22.2726 7.09681C19.8568 12.1203 16.489 17.8737 13.0384 23.1982C18.0431 22.5924 22.9612 21.9 27.6234 21.1211C29.8247 16.5755 32.0674 11.9434 34.1369 7.48438L38.5809 9.52011C36.9403 13.0271 35.1717 16.6621 33.4032 20.2556L34.1783 24.3233C33.1435 24.5378 32.1087 24.7147 31.0702 24.9291C28.8689 29.2565 26.7128 33.3693 24.726 36.9629L20.5416 34.7127C22.0091 32.0297 23.6046 29.042 25.2001 25.9263C20.1954 26.7052 15.0177 27.3976 9.79481 27.962C7.55212 31.1643 5.30568 33.9789 3.40918 36.056L0 33.2C1.12134 31.9883 2.37438 30.3853 3.71021 28.613C2.93506 28.6996 2.20129 28.7447 1.46753 28.8313L1.07995 24.3722C3.06676 24.1991 5.0498 24.0261 7.03284 23.853L7.04037 23.8492Z" fill="var(--fill-0, white)"/>
<path id="Vector_2" d="M35.5593 30.6901C35.5593 31.1643 35.819 31.4691 36.2931 31.4691C37.373 31.4691 39.4878 30.2122 43.0663 28.0486C45.2224 26.7504 47.7699 25.2339 50.3588 23.6347C51.4801 21.2114 52.4735 19.2208 53.6814 17.14L57.6512 19.0026L60.067 22.3779C58.2985 23.503 56.3568 24.7147 54.37 25.9715C53.3766 28.3534 52.3004 30.9912 51.0888 33.9375C47.3786 43.07 41.9412 46.9684 35.5556 46.9684C30.3327 46.9684 27.0552 44.1538 25.8021 38.7013L30.7654 37.2714C31.5405 40.9064 33.6553 42.5094 36.2442 42.5094C41.0343 42.5094 44.2253 38.0955 46.7727 31.9469C46.9872 31.3863 47.2469 30.8218 47.4613 30.3026C46.5996 30.8632 45.7342 31.3863 44.959 31.8604C40.5564 34.5019 37.4934 35.8415 35.0363 35.8415C31.8002 35.8415 30.5471 34.0654 30.5471 31.3825C30.5471 26.2763 36.1576 21.599 43.7925 18.3516L45.5197 22.3328C39.6496 24.8012 35.5518 28.1765 35.5518 30.6864L35.5593 30.6901Z" fill="var(--fill-0, white)"/>
<path id="Vector_3" d="M85.7412 13.3319C85.7412 12.4665 84.7478 11.9886 83.0658 11.9886C75.7734 11.9886 65.7641 19.6084 65.7641 26.9235C65.7641 29.9526 67.4047 31.9432 71.6756 31.9432C76.5071 31.9432 80.9511 30.6901 86.9077 27.6572L88.5898 31.7249C82.3772 34.9723 76.6388 36.357 71.2428 36.357C63.7359 36.357 60.5412 32.9817 60.5412 27.3111C60.5412 17.9189 72.6238 7.65748 84.0141 7.61609C88.9322 7.61609 90.7873 10.0845 90.7873 12.854C90.7873 14.8898 89.5342 16.9669 86.3433 19.3902L83.2352 16.2293C84.8306 15.0591 85.7375 14.1936 85.7375 13.3282L85.7412 13.3319Z" fill="var(--fill-0, white)"/>
<path id="Vector_4" d="M90.9189 29.1323C90.9189 30.9498 91.9989 31.5556 93.4664 31.5556C98.2114 31.5556 103.047 26.8821 103.047 21.8172C103.047 20.1277 102.787 18.9612 102.313 17.6179C101.794 17.4862 101.32 17.3582 100.845 17.2265L102.098 13.0723C105.075 13.9377 110.125 14.6301 114.095 14.6301C115.95 14.6301 117.85 14.5436 119.705 14.3291C126.128 4.80521 132.04 0 137.131 0C140.627 0 142.049 2.07712 142.049 5.0197C142.049 11.2097 133.936 16.4024 122.761 18.2237C122.155 19.2208 121.466 20.2594 120.819 21.3845C122.674 21.2528 124.702 21.0797 127.163 20.9066L127.423 25.1474C123.886 25.4936 121.165 25.6667 118.275 25.7532C115.126 31.4239 111.931 37.96 108.913 45.0606L104.556 43.4576C107.404 36.7898 110.166 30.8595 112.928 25.7532L112.8 21.8135C113.62 21.7721 114.396 21.7269 115.129 21.6855C115.69 20.7335 116.251 19.7815 116.77 18.8709C115.777 18.9123 114.783 18.9574 113.748 18.9574C111.762 18.9574 109.564 18.7844 107.404 18.5247C107.664 19.5633 107.792 20.647 107.792 21.6855C107.792 29.9526 99.7655 35.8829 92.5182 35.8829C88.4204 35.8829 85.9594 33.5876 85.9594 29.9526C85.9594 24.6733 90.5351 20.3008 97.6094 18.3516L98.6893 22.4645C93.3385 23.9809 90.9227 26.4908 90.9227 29.1285L90.9189 29.1323ZM126.256 13.1588C132.514 11.601 137.259 8.91805 137.259 5.62552C137.259 4.80145 136.871 4.41387 136.179 4.41387C133.891 4.41387 130.354 7.61609 126.256 13.1588Z" fill="var(--fill-0, white)"/>
<path id="Vector_5" d="M135.675 20.1616C141.759 11.981 145.902 10.205 149.526 10.205C152.935 10.205 155.178 11.981 155.264 15.5708L150.26 16.1353C150.132 15.0102 149.526 14.5774 148.664 14.5774C146.636 14.5774 144.48 15.9622 141.372 19.9019C144.047 19.8154 146.851 19.7288 149.613 19.7288V23.9696C145.556 23.9696 141.718 24.0562 138.309 24.1841C135.201 28.8576 131.317 35.5668 126.185 45.0042L122.174 42.7954C126.185 35.0476 129.639 29.0721 132.616 24.5265C130.286 24.6996 128.258 24.9179 126.663 25.1323L126.143 21.0647C128.473 20.6733 131.84 20.3723 135.679 20.1578L135.675 20.1616Z" fill="var(--fill-0, white)"/>
<path id="Vector_6" d="M152.311 20.7486C155.159 17.5464 159.343 14.9914 163.659 14.9914C167.11 14.9914 168.965 16.5492 168.965 19.0176C168.965 23.2584 164.694 25.8548 158.956 25.8548C157.402 25.8548 155.893 25.7269 154.339 25.4635C153.993 26.201 153.778 26.8934 153.778 27.4992C153.778 28.9705 154.813 29.5763 156.627 29.5763C162.798 29.5763 169.831 25.9414 174.662 20.0111C175.095 20.2707 175.569 20.5303 176.002 20.7486C178.978 17.2867 183.768 14.4721 188.946 14.4721C193.13 14.4721 195.332 16.5078 195.332 19.5369C195.332 24.4287 190.455 27.3713 184.502 27.3713C182.214 27.3713 180.099 26.9799 178.071 26.3741C178.03 26.6751 177.985 26.9799 177.985 27.2847C177.985 29.4935 179.494 30.3138 182.169 30.3138C186.399 30.3138 191.362 28.6695 195.674 25.5086L198.09 29.1436C193.3 32.5641 186.828 34.6826 182.037 34.6826C175.78 34.6826 172.976 32.0862 172.976 27.582C167.411 31.8679 161.067 33.9864 155.456 33.9864C150.881 33.9864 148.597 31.8642 148.597 28.5754C148.597 27.2772 149.029 25.8473 149.763 24.376C149.116 24.1615 148.469 23.9433 147.821 23.6836L149.289 19.789C150.282 20.1352 151.317 20.4814 152.311 20.7411V20.7486ZM157.315 21.7871C157.962 21.8737 158.568 21.9188 159.17 21.9188C161.846 21.9188 164.134 21.4861 164.134 19.8417C164.134 19.409 163.787 19.0628 163.012 19.0628C161.244 19.0628 159.084 20.2331 157.315 21.7909V21.7871ZM180.446 22.4795C182.041 22.9122 183.595 23.1305 185.149 23.1305C187.998 23.1305 190.286 21.9602 190.286 20.2293C190.286 19.3638 189.68 18.7994 188.299 18.7994C185.495 18.7994 182.515 20.4024 180.446 22.4795Z" fill="var(--fill-0, white)"/>
</g>
</svg>
