<svg width="1200" height="700" viewBox="0 0 1200 700" fill="none" xmlns="http://www.w3.org/2000/svg">
  <defs>
    <linearGradient id="bgResilient" x1="0" y1="0" x2="1200" y2="700" gradientUnits="userSpaceOnUse">
      <stop stop-color="#3B493B"/>
      <stop offset="1" stop-color="#1F271F"/>
    </linearGradient>
    <linearGradient id="mist" x1="0" y1="0" x2="0" y2="1">
      <stop stop-color="#BFD3B5" stop-opacity="0.48"/>
      <stop offset="1" stop-color="#BFD3B5" stop-opacity="0"/>
    </linearGradient>
  </defs>
  <rect width="1200" height="700" fill="url(#bgResilient)"/>
  <path d="M0 430C130 370 270 360 420 388C560 414 710 410 860 370C980 340 1090 334 1200 350V700H0V430Z" fill="#2F3D32"/>
  <path d="M0 520C150 468 300 466 470 498C630 526 780 526 940 496C1040 478 1130 476 1200 488V700H0V520Z" fill="#273429"/>
  <rect y="588" width="1200" height="112" fill="#1E291E"/>
  <ellipse cx="610" cy="170" rx="300" ry="110" fill="url(#mist)"/>
  <g fill="#162016">
    <rect x="90" y="316" width="18" height="282" rx="9"/>
    <rect x="236" y="300" width="18" height="300" rx="9"/>
    <rect x="372" y="324" width="18" height="276" rx="9"/>
    <rect x="522" y="296" width="18" height="302" rx="9"/>
    <rect x="672" y="322" width="18" height="276" rx="9"/>
    <rect x="826" y="304" width="18" height="296" rx="9"/>
    <rect x="976" y="318" width="18" height="282" rx="9"/>
    <rect x="1102" y="296" width="18" height="302" rx="9"/>
  </g>
  <g fill="#2A3C2A">
    <path d="M108 316C146 302 184 322 206 360C166 374 130 360 108 316Z"/>
    <path d="M108 342C72 332 38 348 18 378C60 390 92 374 108 342Z"/>
    <path d="M254 300C292 286 330 306 352 344C312 358 276 344 254 300Z"/>
    <path d="M254 328C216 318 182 334 162 364C204 376 236 360 254 328Z"/>
    <path d="M390 324C430 310 468 330 492 368C450 384 414 368 390 324Z"/>
    <path d="M390 350C352 340 318 358 298 386C340 398 372 382 390 350Z"/>
    <path d="M540 296C580 282 620 300 642 340C602 352 564 340 540 296Z"/>
    <path d="M540 324C500 314 466 330 446 360C490 372 524 356 540 324Z"/>
    <path d="M690 322C730 308 770 326 792 364C752 376 714 364 690 322Z"/>
    <path d="M690 348C652 338 616 356 598 384C638 394 672 378 690 348Z"/>
    <path d="M844 304C882 290 922 310 946 346C906 360 868 346 844 304Z"/>
    <path d="M844 332C806 322 772 338 752 368C794 380 826 366 844 332Z"/>
    <path d="M994 318C1032 304 1070 322 1094 358C1054 370 1016 358 994 318Z"/>
    <path d="M994 344C956 334 922 350 902 380C944 392 976 376 994 344Z"/>
  </g>
  <g fill="#EFD98C" opacity="0.88">
    <circle cx="188" cy="572" r="4"/>
    <circle cx="236" cy="564" r="4"/>
    <circle cx="522" cy="576" r="4"/>
    <circle cx="672" cy="560" r="4"/>
    <circle cx="976" cy="570" r="4"/>
    <circle cx="1092" cy="562" r="4"/>
  </g>
</svg>
