<svg width="1200" height="700" viewBox="0 0 1200 700" fill="none" xmlns="http://www.w3.org/2000/svg">
  <defs>
    <linearGradient id="bgClimate" x1="0" y1="0" x2="0" y2="700" gradientUnits="userSpaceOnUse">
      <stop stop-color="#465143"/>
      <stop offset="1" stop-color="#252A25"/>
    </linearGradient>
    <linearGradient id="sunGlow" x1="0" y1="0" x2="0" y2="1">
      <stop stop-color="#F4C86A" stop-opacity="0.9"/>
      <stop offset="1" stop-color="#F4C86A" stop-opacity="0"/>
    </linearGradient>
  </defs>
  <rect width="1200" height="700" fill="url(#bgClimate)"/>
  <rect y="420" width="1200" height="280" fill="#2E3A30"/>
  <rect y="520" width="1200" height="180" fill="#253126"/>
  <circle cx="980" cy="180" r="120" fill="url(#sunGlow)"/>
  <path d="M80 520C210 440 330 420 470 440C620 462 740 430 870 380C980 338 1090 330 1200 360V700H80V520Z" fill="#3E4B3F"/>
  <path d="M80 560C220 500 340 494 500 516C650 538 770 518 920 480C1020 454 1110 454 1200 480V700H80V560Z" fill="#314035"/>
  <g opacity="0.6">
    <ellipse cx="260" cy="448" rx="90" ry="34" fill="#1F2A22"/>
    <ellipse cx="420" cy="466" rx="108" ry="36" fill="#1F2A22"/>
    <ellipse cx="608" cy="452" rx="95" ry="34" fill="#1F2A22"/>
  </g>
  <g fill="#182118">
    <rect x="190" y="364" width="16" height="190" rx="8"/>
    <rect x="355" y="332" width="16" height="220" rx="8"/>
    <rect x="544" y="356" width="16" height="198" rx="8"/>
    <rect x="720" y="338" width="16" height="212" rx="8"/>
    <rect x="888" y="350" width="16" height="204" rx="8"/>
    <rect x="1032" y="328" width="16" height="224" rx="8"/>
  </g>
  <g fill="#243327">
    <path d="M206 362C242 352 274 364 288 394C256 404 228 394 206 362Z"/>
    <path d="M206 380C170 374 144 392 132 420C166 426 194 412 206 380Z"/>
    <path d="M371 330C407 320 439 334 456 366C420 378 390 368 371 330Z"/>
    <path d="M371 350C335 346 309 364 296 392C332 400 360 386 371 350Z"/>
    <path d="M560 354C592 342 624 354 642 386C610 398 580 388 560 354Z"/>
    <path d="M560 372C526 368 500 384 486 412C518 420 546 408 560 372Z"/>
    <path d="M736 336C770 324 804 338 822 370C788 382 758 372 736 336Z"/>
    <path d="M736 356C700 350 674 366 660 396C696 404 722 392 736 356Z"/>
    <path d="M904 348C940 338 972 352 988 382C952 394 924 384 904 348Z"/>
    <path d="M904 366C870 362 844 380 830 408C864 416 890 402 904 366Z"/>
  </g>
</svg>
