<svg width="1200" height="700" viewBox="0 0 1200 700" fill="none" xmlns="http://www.w3.org/2000/svg">
  <defs>
    <linearGradient id="bgExcelsa" x1="0" y1="0" x2="1200" y2="700" gradientUnits="userSpaceOnUse">
      <stop stop-color="#4A4134"/>
      <stop offset="1" stop-color="#29231C"/>
    </linearGradient>
    <linearGradient id="warmLight" x1="0" y1="0" x2="0" y2="1">
      <stop stop-color="#F2C878" stop-opacity="0.9"/>
      <stop offset="1" stop-color="#F2C878" stop-opacity="0"/>
    </linearGradient>
  </defs>
  <rect width="1200" height="700" fill="url(#bgExcelsa)"/>
  <rect y="470" width="1200" height="230" fill="#2C261E"/>
  <ellipse cx="920" cy="170" rx="170" ry="120" fill="url(#warmLight)"/>
  <path d="M0 520C130 480 250 474 390 498C520 522 650 526 790 500C930 474 1060 470 1200 494V700H0V520Z" fill="#3A3128"/>
  <g fill="#1D1712">
    <rect x="164" y="328" width="18" height="240" rx="9"/>
    <rect x="332" y="302" width="18" height="266" rx="9"/>
    <rect x="500" y="318" width="18" height="250" rx="9"/>
    <rect x="674" y="296" width="18" height="272" rx="9"/>
    <rect x="848" y="314" width="18" height="254" rx="9"/>
  </g>
  <g fill="#2F241D">
    <path d="M182 328C230 306 274 322 296 366C244 382 206 366 182 328Z"/>
    <path d="M182 356C136 350 102 370 82 402C132 414 168 396 182 356Z"/>
    <path d="M350 302C396 282 444 300 468 344C420 360 380 344 350 302Z"/>
    <path d="M350 330C302 322 268 342 248 374C300 386 336 370 350 330Z"/>
    <path d="M518 318C562 298 608 316 634 360C586 376 548 360 518 318Z"/>
    <path d="M518 346C474 338 440 358 420 390C468 402 504 386 518 346Z"/>
    <path d="M692 296C738 276 786 296 810 340C762 356 722 340 692 296Z"/>
    <path d="M692 324C644 316 610 336 590 368C642 380 678 364 692 324Z"/>
    <path d="M866 314C912 294 958 312 984 356C936 372 896 356 866 314Z"/>
    <path d="M866 342C820 334 786 354 764 386C816 398 850 382 866 342Z"/>
  </g>
  <g fill="#EBC985" opacity="0.9">
    <ellipse cx="302" cy="578" rx="14" ry="9"/>
    <ellipse cx="338" cy="592" rx="14" ry="9"/>
    <ellipse cx="526" cy="586" rx="14" ry="9"/>
    <ellipse cx="706" cy="574" rx="14" ry="9"/>
    <ellipse cx="742" cy="588" rx="14" ry="9"/>
    <ellipse cx="902" cy="582" rx="14" ry="9"/>
  </g>
  <g stroke="#C6A56A" stroke-width="2" opacity="0.9">
    <path d="M302 570V586"/>
    <path d="M338 584V600"/>
    <path d="M526 578V594"/>
    <path d="M706 566V582"/>
    <path d="M742 580V596"/>
    <path d="M902 574V590"/>
  </g>
</svg>
